<svg width="150" height="149" viewBox="0 0 150 149" fill="none" xmlns="http://www.w3.org/2000/svg">
<path fill-rule="evenodd" clip-rule="evenodd" d="M116.474 1.62566C118.642 -0.541887 122.156 -0.541887 124.323 1.62566L147.774 25.0757C149.941 27.2433 149.941 30.7576 147.774 32.9251C145.606 35.0927 142.092 35.0927 139.924 32.9251L139.247 32.2485L131.768 39.7279L109.609 17.5688L117.088 10.0893L116.474 9.47507C114.306 7.30751 114.306 3.79322 116.474 1.62566ZM102.533 27.7657C96.6747 21.9078 87.1773 21.9078 81.3194 27.7657L16.9918 92.0933C11.7064 97.3787 11.1899 105.627 15.4423 111.492L9.47662 117.457C5.96191 120.972 5.96191 126.67 9.47663 130.185L10.0669 130.776L1.6886 139.154C-0.562866 141.405 -0.562866 145.056 1.6886 147.307C3.94006 149.559 7.59041 149.559 9.84187 147.307L18.2202 138.929L19.41 140.119C22.9247 143.633 28.6232 143.633 32.1379 140.119L38.1128 134.144C43.9731 138.344 52.1795 137.812 57.445 132.546L121.773 68.2189C127.63 62.3611 127.63 52.8636 121.773 47.0057L102.533 27.7657ZM75.8931 63.9848C72.3784 60.4701 66.6799 60.4701 63.1652 63.9848L35.8654 91.2846C32.3507 94.7993 32.3506 100.498 35.8654 104.013L45.7207 113.868C49.2354 117.383 54.9339 117.383 58.4486 113.868L59.1904 113.126L53.2549 107.19C51.0157 104.951 51.0157 101.321 53.2549 99.0815C55.4942 96.8423 59.1247 96.8423 61.3639 99.0815L67.2994 105.017L76.7555 95.5609L70.9643 89.7697C68.7251 87.5305 68.7251 83.9 70.9643 81.6607C73.2036 79.4215 76.8341 79.4215 79.0733 81.6607L84.8645 87.4519L85.7484 86.568C89.2631 83.0533 89.2631 77.3548 85.7484 73.8401L75.8931 63.9848ZM93.0084 47.9349C95.3516 45.5917 99.1676 45.6088 101.511 47.952C103.854 50.2951 103.871 54.1112 101.528 56.4543L96.8144 61.1677C94.4713 63.5108 90.6552 63.4938 88.3121 61.1506C85.9689 58.8075 85.9519 54.9914 88.295 52.6483L93.0084 47.9349Z" fill="black"/>
</svg>
